<svg xmlns="http://www.w3.org/2000/svg" xmlns:xlink="http://www.w3.org/1999/xlink"><defs><path id="a" d="M188.47 3844.13l7.01 7.4c.58.61 1.52.61 2.1 0 .58-.61.58-1.61 0-2.22l-5.96-6.29 6-6.34c.58-.61.58-1.61 0-2.22a1.43 1.43 0 0 0-2.1 0l-7 7.4-.03.03-.02.02c-.58.61-.58 1.6 0 2.22z"/><path id="a" d="M309.88 956c-.07.17-.19.32-.33.44v.01l-31.1 35.12a1.29 1.29 0 0 1-1.93 0l-31.1-35.12v-.01a1.29 1.29 0 0 1-.12-1.83l11.22-12.72c.24-.27.6-.43.96-.43h40.01c.37 0 .72.16.96.43l11.23 12.72c.33.38.41.92.2 1.38zm-29.56-11.96l9.17 9.23 5.72-9.23zm-2.83.8l-9.28 9.34h18.55zm-17.73-.8l5.72 9.23 9.17-9.23zm-10.64 10.14h13.9l-5.74-9.26zm25.73 31.61l-10.5-29.03h-15.21zm30.98-29.03h-38.75l10.42 28.78 7.6-20.6a1.29 1.29 0 1 1 2.4.9l-7.33 19.9zm-13.87-2.58h13.9l-8.17-9.26zm-13.19-26.9v6.65a1.29 1.29 0 1 1-2.57 0v-6.64a1.29 1.29 0 1 1 2.57 0zm10.44 5.64l-4.7 4.7a1.28 1.28 0 0 1-1.81 0 1.3 1.3 0 0 1 0-1.83l4.68-4.7a1.29 1.29 0 1 1 1.82 1.83zm-17.19 4.7a1.28 1.28 0 0 1-1.81 0l-4.7-4.7a1.29 1.29 0 0 1 1.83-1.83l4.68 4.7c.5.5.5 1.32 0 1.82zm15.94 21.68a1.29 1.29 0 1 1 0 2.58 1.29 1.29 0 0 1 0-2.58z"/><style>.cls-1{fill:#0f9bd8;fill-rule:evenodd}</style><style>.cls-1{fill:#fff;fill-rule:evenodd}</style></defs><symbol id="icon-arr-l" viewBox="0 0 11 18"><use xlink:href="#a" transform="translate(-188 -3834)"/></symbol><symbol id="icon-arr-r" viewBox="0 0 10 18"><path d="M9.56 10.13l-7.01 7.4a1.434 1.434 0 0 1-2.1 0 1.634 1.634 0 0 1 0-2.22l5.96-6.29-6-6.34a1.634 1.634 0 0 1 0-2.22 1.434 1.434 0 0 1 2.1 0l7 7.4a.053.053 0 0 1 .02.03c.01.01.02.01.03.02a1.634 1.634 0 0 1 0 2.22z"/></symbol><symbol id="icon-diamond" viewBox="0 0 65 66"><use xlink:href="#a" transform="translate(-245 -926)"/></symbol><symbol id="icon-fb" viewBox="0 0 10 20"><path d="M.32 10.65h2.17v9.03c0 .18.14.32.32.32h3.68c.17 0 .32-.14.32-.32v-8.99h2.5c.15 0 .29-.12.3-.28L10 7.09a.33.33 0 0 0-.08-.26.35.35 0 0 0-.24-.1H6.81V4.64c0-.62.33-.94 1-.94h1.87c.18 0 .32-.15.32-.33V.32A.32.32 0 0 0 9.68 0H6.97c-.45 0-2 .09-3.24 1.24A3.46 3.46 0 0 0 2.6 4.29v2.44H.32a.32.32 0 0 0-.32.32v3.28c0 .18.14.32.32.32z"/></symbol><symbol id="icon-graph" viewBox="0 0 58 75"><path class="cls-1" d="M54.248 5.83H35.834a6.92 6.92 0 0 0-13.668 0H3.752A3.846 3.846 0 0 0 0 9.755v41.684a3.846 3.846 0 0 0 3.752 3.925h17.493L15.564 73.07a1.472 1.472 0 0 0 .882 1.85 1.362 1.362 0 0 0 1.773-.92L24.2 55.364h9.6L39.781 74a1.362 1.362 0 0 0 1.773.92 1.472 1.472 0 0 0 .882-1.85l-5.681-17.706h17.493A3.846 3.846 0 0 0 58 51.439V9.755a3.846 3.846 0 0 0-3.752-3.925zM29 2.929a4.2 4.2 0 0 1 3.933 2.9h-7.866A4.2 4.2 0 0 1 29 2.929zm26.2 48.51a.975.975 0 0 1-.951.994H50.59V31.551a1.4 1.4 0 1 0-2.8 0v20.882h-4.31v-16.4a1.4 1.4 0 1 0-2.8 0v16.4h-3.933v-11.61a1.4 1.4 0 1 0-2.8 0v11.61H30.4V37.1a1.4 1.4 0 1 0-2.8 0v15.332h-4.067v-8.06a1.4 1.4 0 1 0-2.8 0v8.06h-3.252v-7.468a1.4 1.4 0 1 0-2.8 0v7.468h-3.75V46.67a1.4 1.4 0 1 0-2.8 0v5.762H3.756a.974.974 0 0 1-.951-.994V9.755a.974.974 0 0 1 .951-1h50.5a.975.975 0 0 1 .951 1v41.684zm-4.616-35.783c0-.02-.006-.039-.008-.059s-.007-.055-.012-.082-.011-.046-.016-.069a.9.9 0 0 0-.04-.137l-.024-.069c-.009-.023-.017-.04-.026-.059s-.021-.048-.033-.071-.02-.036-.031-.054l-.039-.069c-.014-.023-.027-.038-.04-.056s-.027-.04-.042-.059-.052-.062-.079-.091l-.013-.016a.179.179 0 0 1-.014-.013c-.029-.029-.058-.057-.089-.083l-.052-.042-.058-.044c-.02-.014-.041-.026-.061-.039l-.056-.035-.063-.031c-.02-.01-.041-.021-.062-.03l-.06-.023-.07-.026-.058-.015c-.025-.007-.049-.014-.075-.019l-.066-.011c-.023-.004-.046-.008-.069-.01s-.075 0-.113-.006H43.14a1.466 1.466 0 0 0 0 2.93h2.668L34.18 29.428l-3.053-3.193a1.358 1.358 0 0 0-1.981 0L19.04 36.806l-3.017-3.155a1.358 1.358 0 0 0-1.981 0L8.931 39a1.513 1.513 0 0 0 0 2.072 1.358 1.358 0 0 0 1.981 0l4.12-4.31 3.017 3.155a1.358 1.358 0 0 0 1.981 0l10.106-10.57 3.053 3.193a1.358 1.358 0 0 0 1.981 0l12.619-13.2v2.791a1.4 1.4 0 1 0 2.8 0V15.8a1.427 1.427 0 0 0-.006-.144zm-40.661-1.32a1.466 1.466 0 1 1-1.4 1.465 1.433 1.433 0 0 1 1.399-1.465zm0 5.972a1.466 1.466 0 1 1-1.4 1.465 1.434 1.434 0 0 1 1.399-1.465zm0 5.972a1.466 1.466 0 1 1-1.4 1.465 1.434 1.434 0 0 1 1.399-1.465z"/></symbol><symbol id="icon-inst" viewBox="0 0 20 20"><path id="Forma_1" data-name="Forma 1" class="cls-1" d="M869.184 4215.69a2.479 2.479 0 0 0-1.81-.75H852.5a2.569 2.569 0 0 0-2.566 2.56v14.87a2.586 2.586 0 0 0 2.566 2.57h14.872a2.587 2.587 0 0 0 2.565-2.57v-14.87a2.47 2.47 0 0 0-.753-1.81zm-12.066 6.45a4.105 4.105 0 0 1 5.678 0 3.808 3.808 0 0 1 0 5.51 4.105 4.105 0 0 1-5.678 0 3.811 3.811 0 0 1 0-5.51zm10.555 9.7a.789.789 0 0 1-.234.57.778.778 0 0 1-.561.22h-13.92a.771.771 0 0 1-.567-.22.8.8 0 0 1-.228-.57v-8.44H854a5.666 5.666 0 0 0-.26 1.71 5.725 5.725 0 0 0 1.823 4.26 6.075 6.075 0 0 0 4.389 1.77 6.242 6.242 0 0 0 3.125-.81 6.066 6.066 0 0 0 2.266-2.2 5.739 5.739 0 0 0 .834-3.02 5.635 5.635 0 0 0-.261-1.71h1.758v8.44zm0-11.63a.888.888 0 0 1-.9.9h-2.265a.89.89 0 0 1-.9-.9v-2.15a.878.878 0 0 1 .261-.63.851.851 0 0 1 .638-.27h2.265a.854.854 0 0 1 .639.27.877.877 0 0 1 .26.63v2.15z" transform="translate(-849.938 -4214.94)"/></symbol><symbol id="icon-phone" viewBox="0 0 24 24"><path d="M20.741 17.218l-.13-.162c-1.029-1.301-1.889-1.978-2.627-2.067-.638-.087-1.255.354-1.911.808l-.701.438a1.515 1.515 0 0 1-.245.099c-.41.116-1.445.184-2.031-.352-.682-.624-1.74-1.766-2.563-2.764-.786-1.033-1.65-2.321-2.101-3.132-.381-.687-.062-1.648.151-2.004.042-.07.097-.139.158-.207l.618-.571c.009-.009.013-.02.021-.028.006-.006.016-.004.023-.009.558-.471 1.135-.956 1.214-1.579.093-.732-.362-1.722-1.393-3.022l-.126-.162C8.46 1.686 7.495.449 6.109.653a3.876 3.876 0 0 0-1.534.582c-.005.003-.008.009-.012.012-.004.003-.009.003-.013.006l-.699.518c-.007.004-.011.013-.018.019-.005.005-.013.006-.019.011a9.309 9.309 0 0 0-.242.21c-.709.632-2.244 2.467-1.197 5.861.676 2.192 2.07 4.75 4.041 7.412l-.019.016 1.087 1.354.009-.007c2.137 2.528 4.312 4.482 6.305 5.665 1.33.79 2.492 1.051 3.448 1.051a4.798 4.798 0 0 0 2.611-.746l.284-.19c.032-.022.055-.053.078-.081l.619-.466c.007-.006.011-.014.018-.02.003-.003.008-.002.012-.005.44-.402.745-.823.957-1.322.549-1.279-.434-2.504-1.084-3.315zm.349 3.001a2.95 2.95 0 0 1-.754 1.038l-.921.693c-.834.542-2.617 1.212-5.207-.326-1.993-1.183-4.187-3.183-6.346-5.784l-.584-.738C5.245 12.406 3.815 9.824 3.14 7.636c-.877-2.845.228-4.371.968-5.03.075-.068.15-.131.224-.194l.003-.003.671-.497a3.05 3.05 0 0 1 1.221-.468c.929-.14 1.685.84 2.24 1.552l.13.165C9.749 4.614 9.86 5.305 9.824 5.587c-.04.313-.516.714-.936 1.067l-.059.05-.005.007-.009.005-.639.591-.01.014c-.004.005-.012.007-.016.012a2.246 2.246 0 0 0-.253.337c-.359.601-.698 1.843-.163 2.804.467.84 1.356 2.167 2.173 3.239.854 1.036 1.943 2.212 2.649 2.857.529.483 1.265.645 1.902.645.341 0 .654-.047.891-.114.125-.036.254-.088.387-.153.008-.004.012-.011.02-.016.004-.002.01-.001.014-.004l.742-.464c.024-.016.04-.037.06-.057l.009.01c.457-.317.978-.689 1.304-.635.289.035.945.313 2.099 1.77l.133.167c.562.701 1.332 1.661.973 2.5z"/></symbol><symbol id="icon-quote-l" viewBox="0 0 23.517 23.517"><path d="M8.075.333c.594 0 1.504.041 2.729.119v4.569c-3.722 0-5.578 1.722-5.578 5.164l.06 2.077h3.856v10.92H0V11.373C.001 4.012 2.693.333 8.075.333zm15.442 4.689V.453C22.452.375 21.7.334 21.263.334c-5.381 0-8.071 3.68-8.071 11.041v11.809h9.141v-10.92h-3.857l-.059-2.077c-.005-3.245 1.698-4.966 5.1-5.165z"/></symbol><symbol id="icon-quote-r" viewBox="0 0 23.516 23.516"><path d="M23.516.334v11.811c0 7.359-2.689 11.039-8.072 11.039-.594 0-1.504-.039-2.729-.117v-4.572c3.721 0 5.578-1.721 5.578-5.161l-.061-2.077h-3.855V.334h9.139zM1.188 11.254h3.857l.059 2.078c0 3.244-1.701 4.965-5.104 5.162v4.572c1.067.076 1.819.115 2.254.115 5.381 0 8.072-3.68 8.072-11.039V.332h-9.14l.002 10.922z"/></symbol><symbol id="icon-vk" viewBox="0 0 21 11"><path d="M17.5 6.36c.66.57 1.36 1.11 1.95 1.74.27.28.51.57.7.89.27.46.03.97-.44 1H16.8a2.4 2.4 0 0 1-1.86-.67c-.4-.36-.77-.75-1.16-1.12-.16-.15-.33-.3-.53-.41-.4-.23-.74-.16-.97.21-.23.37-.28.78-.3 1.2-.03.6-.24.76-.93.79a8.36 8.36 0 0 1-4.17-.79 8.95 8.95 0 0 1-2.8-2.32 30.33 30.33 0 0 1-3.7-5.82C.15.6.32.36.9.35c.95-.02 1.9-.02 2.85 0 .4 0 .65.2.8.52a15.2 15.2 0 0 0 1.93 3.17 3 3 0 0 0 .73.71c.34.2.6.13.75-.2.1-.21.15-.44.17-.66.08-.78.09-1.56-.05-2.33-.08-.48-.39-.8-.93-.89-.28-.05-.24-.14-.1-.28.23-.24.45-.39.9-.39h3.28c.52.09.64.3.7.76l.01 3.23c0 .18.1.71.47.82.29.09.48-.12.65-.28a9.91 9.91 0 0 0 1.86-2.52c.22-.4.41-.81.6-1.22.14-.31.35-.46.74-.45h3.17c.1 0 .2 0 .28.02.54.08.68.28.52.74-.26.72-.77 1.32-1.26 1.93-.53.65-1.1 1.27-1.62 1.92-.48.59-.44.89.15 1.41z"/></symbol></svg>