<svg xmlns="http://www.w3.org/2000/svg" xmlns:xlink="http://www.w3.org/1999/xlink" width="200" height="200" viewBox="0 0 200 200"><defs><path id="a" d="M608 2824.2v21.59c0 7.59-6.47 14.08-15.04 15.09l-8.76 1.04a81.04 81.04 0 0 1-3.28 7.92l5.46 6.93c5.35 6.78 5.33 15.94-.03 21.31l-15.27 15.26c-5.37 5.37-14.52 5.38-21.3.04l-6.93-5.47a78.65 78.65 0 0 1-7.93 3.29l-1.04 8.76c-1.01 8.57-7.5 15.04-15.09 15.04H497.2c-7.58 0-14.07-6.47-15.09-15.04l-1.03-8.76a78.68 78.68 0 0 1-7.93-3.29l-6.92 5.46c-6.78 5.35-15.94 5.34-21.3-.03l-15.27-15.26c-5.37-5.37-5.38-14.53-.04-21.31l5.46-6.93a81.04 81.04 0 0 1-3.28-7.92l-8.76-1.04c-8.57-1.01-15.04-7.5-15.04-15.09v-21.59c0-7.58 6.47-14.07 15.04-15.09l8.76-1.03c.95-2.7 2.05-5.35 3.29-7.93l-5.46-6.92c-5.35-6.78-5.34-15.94.03-21.31l15.26-15.27c5.37-5.36 14.53-5.37 21.31-.03l6.93 5.46a80.83 80.83 0 0 1 7.92-3.28l1.03-8.76c1.02-8.57 7.5-15.04 15.1-15.04h21.58c7.59 0 14.08 6.47 15.1 15.04l1.03 8.76a81 81 0 0 1 7.92 3.28l6.93-5.46c6.78-5.34 15.94-5.33 21.3.03l15.27 15.27c5.37 5.37 5.38 14.53.04 21.31l-5.46 6.92a80.69 80.69 0 0 1 3.28 7.93l8.76 1.04c8.57 1.01 15.04 7.5 15.04 15.08zm-7.81 0c0-3.63-3.5-6.78-8.15-7.33l-11.21-1.32a3.91 3.91 0 0 1-3.27-2.7 72.96 72.96 0 0 0-4.71-11.38 3.9 3.9 0 0 1 .4-4.21l7-8.87c2.89-3.67 3.13-8.38.57-10.95l-15.27-15.26c-2.56-2.57-7.27-2.32-10.94.58l-8.87 6.99a3.9 3.9 0 0 1-4.22.4 72.1 72.1 0 0 0-11.38-4.71 3.93 3.93 0 0 1-2.7-3.27l-1.32-11.21c-.55-4.65-3.7-8.15-7.33-8.15H497.2c-3.63 0-6.78 3.5-7.33 8.15l-1.32 11.21a3.91 3.91 0 0 1-2.7 3.27 72.95 72.95 0 0 0-11.37 4.71 3.9 3.9 0 0 1-4.22-.4l-8.87-6.99c-3.67-2.9-8.38-3.15-10.94-.58l-15.27 15.26c-2.56 2.57-2.32 7.28.58 10.95l7 8.87a3.9 3.9 0 0 1 .4 4.21 72.66 72.66 0 0 0-4.72 11.38 3.91 3.91 0 0 1-3.27 2.7l-11.21 1.32c-4.65.55-8.15 3.7-8.15 7.33v21.59c0 3.63 3.5 6.78 8.15 7.33l11.21 1.33a3.9 3.9 0 0 1 3.26 2.69 72.85 72.85 0 0 0 4.72 11.38c.7 1.36.55 3.01-.4 4.22l-7 8.87c-2.89 3.67-3.14 8.38-.57 10.94l15.26 15.27c2.57 2.56 7.28 2.32 10.95-.58l8.87-6.99a3.87 3.87 0 0 1 4.21-.4 73.06 73.06 0 0 0 11.38 4.71 3.91 3.91 0 0 1 2.7 3.27l1.32 11.21c.55 4.64 3.7 8.15 7.33 8.15h21.6c3.62 0 6.77-3.5 7.32-8.15l1.33-11.21a3.92 3.92 0 0 1 2.7-3.27 73.07 73.07 0 0 0 11.38-4.71 3.9 3.9 0 0 1 4.21.4l8.87 6.99c3.67 2.9 8.38 3.14 10.94.58l15.27-15.27c2.57-2.56 2.32-7.27-.58-10.94l-6.99-8.87a3.91 3.91 0 0 1-.4-4.22 72.85 72.85 0 0 0 4.72-11.38 3.9 3.9 0 0 1 3.26-2.69l11.21-1.33c4.64-.55 8.15-3.7 8.15-7.33zm-29.02 10.8a63.15 63.15 0 0 1-47.29 61.16 3.9 3.9 0 0 1-1.96-7.57 55.32 55.32 0 0 0 41.44-53.59 55.42 55.42 0 0 0-55.36-55.36 55.42 55.42 0 0 0-55.36 55.36 55.66 55.66 0 0 0 39.7 53.12 3.9 3.9 0 1 1-2.2 7.49 63.67 63.67 0 0 1-32.48-22.43 62.63 62.63 0 0 1-12.83-38.18 63.24 63.24 0 0 1 63.17-63.17 63.24 63.24 0 0 1 63.17 63.17zm-31.83 23.81a3.9 3.9 0 0 1-5.47.75l-28.23-21.45a3.9 3.9 0 0 1-1.55-3.11v-19.39a3.9 3.9 0 0 1 7.82 0v17.45l26.68 20.28a3.9 3.9 0 0 1 .75 5.47zM508 2795.16a3.9 3.9 0 1 1 0 7.82 3.9 3.9 0 0 1 0-7.82zm-1.42 95.2a3.9 3.9 0 1 1 0 7.82 3.9 3.9 0 0 1 0-7.82z"/></defs><g opacity=".1" transform="translate(-408 -2735)"><use fill="#fff" xlink:href="#a"/></g></svg>