<svg xmlns="http://www.w3.org/2000/svg" xmlns:xlink="http://www.w3.org/1999/xlink" width="306" height="127" viewBox="0 0 306 127"><defs><path id="a" d="M1024.85 3359.89c-.4 0-.67-.26-.67-.67v-5.5c0-.48.08-.92.26-1.32l2.93-7.79c.16-.4.52-.61.9-.61h3.45c.34 0 .5.29.38.61l-2.89 7.74h2.05c.41 0 .67.26.67.67v6.2c0 .41-.26.67-.67.67zm10.77 0c-.4 0-.66-.26-.66-.67v-5.5c0-.48.08-.92.25-1.32l2.93-7.79c.17-.4.52-.61.91-.61h3.45c.34 0 .49.29.37.61l-2.92 7.74h2.09c.4 0 .67.26.67.67v6.2c0 .41-.27.67-.67.67zm282.85 95.11c.4 0 .67.26.67.67v5.5c0 .48-.08.91-.26 1.32l-2.93 7.79a.95.95 0 0 1-.9.61h-3.45c-.34 0-.5-.29-.38-.61l2.93-7.74h-2.09c-.41 0-.67-.26-.67-.67v-6.2c0-.41.26-.67.67-.67zm10.77 0c.41 0 .67.26.67.67v5.5c0 .48-.08.91-.25 1.32l-2.94 7.79a.94.94 0 0 1-.9.61h-3.45c-.34 0-.5-.29-.37-.61l2.88-7.74h-2.05c-.41 0-.67-.26-.67-.67v-6.2c0-.41.26-.67.67-.67z"/></defs><g opacity=".5" transform="translate(-1024 -3344)"><use fill="#0095d6" xlink:href="#a"/></g></svg>