<svg xmlns="http://www.w3.org/2000/svg" xmlns:xlink="http://www.w3.org/1999/xlink" width="65" height="66" viewBox="0 0 65 66"><defs><path id="a" d="M309.88 956c-.07.17-.19.32-.33.44v.01l-31.1 35.12a1.29 1.29 0 0 1-1.93 0l-31.1-35.12v-.01a1.29 1.29 0 0 1-.12-1.83l11.22-12.72c.24-.27.6-.43.96-.43h40.01c.37 0 .72.16.96.43l11.23 12.72c.33.38.41.92.2 1.38zm-29.56-11.96l9.17 9.23 5.72-9.23zm-2.83.8l-9.28 9.34h18.55zm-17.73-.8l5.72 9.23 9.17-9.23zm-10.64 10.14h13.9l-5.74-9.26zm25.73 31.61l-10.5-29.03h-15.21zm30.98-29.03h-38.75l10.42 28.78 7.6-20.6a1.29 1.29 0 1 1 2.4.9l-7.33 19.9zm-13.87-2.58h13.9l-8.17-9.26zm-13.19-26.9v6.65a1.29 1.29 0 1 1-2.57 0v-6.64a1.29 1.29 0 1 1 2.57 0zm10.44 5.64l-4.7 4.7a1.28 1.28 0 0 1-1.81 0 1.3 1.3 0 0 1 0-1.83l4.68-4.7a1.29 1.29 0 1 1 1.82 1.83zm-17.19 4.7a1.28 1.28 0 0 1-1.81 0l-4.7-4.7a1.29 1.29 0 0 1 1.83-1.83l4.68 4.7c.5.5.5 1.32 0 1.82zm15.94 21.68a1.29 1.29 0 1 1 0 2.58 1.29 1.29 0 0 1 0-2.58z"/></defs><g transform="translate(-245 -926)"><use fill="#0f9bd8" xlink:href="#a"/></g></svg>