<svg xmlns="http://www.w3.org/2000/svg" width="58" height="75" viewBox="0 0 58 75">
  <metadata><?xpacket begin="﻿" id="W5M0MpCehiHzreSzNTczkc9d"?>
<x:xmpmeta xmlns:x="adobe:ns:meta/" x:xmptk="Adobe XMP Core 5.6-c138 79.159824, 2016/09/14-01:09:01        ">
   <rdf:RDF xmlns:rdf="http://www.w3.org/1999/02/22-rdf-syntax-ns#">
      <rdf:Description rdf:about=""/>
   </rdf:RDF>
</x:xmpmeta>
                                                                                                    
                                                                                                    
                                                                                                    
                                                                                                    
                                                                                                    
                                                                                                    
                                                                                                    
                                                                                                    
                                                                                                    
                                                                                                    
                                                                                                    
                                                                                                    
                                                                                                    
                                                                                                    
                                                                                                    
                                                                                                    
                                                                                                    
                                                                                                    
                                                                                                    
                                                                                                    
                           
<?xpacket end="w"?></metadata>
<defs>
    <style>
      .cls-1 {
        fill: #0f9bd8;
        fill-rule: evenodd;
      }
    </style>
  </defs>
  <path class="cls-1" d="M794.248,940.83H775.834a6.92,6.92,0,0,0-13.668,0H743.752A3.846,3.846,0,0,0,740,944.755v41.684a3.846,3.846,0,0,0,3.752,3.925h17.493l-5.681,17.706a1.472,1.472,0,0,0,.882,1.85,1.362,1.362,0,0,0,1.773-.92l5.981-18.636h9.6L779.781,1009a1.362,1.362,0,0,0,1.773.92,1.472,1.472,0,0,0,.882-1.85l-5.681-17.706h17.493A3.846,3.846,0,0,0,798,986.439V944.755A3.846,3.846,0,0,0,794.248,940.83ZM769,937.929a4.2,4.2,0,0,1,3.933,2.9h-7.866A4.2,4.2,0,0,1,769,937.929Zm26.2,48.51a0.975,0.975,0,0,1-.951.994H790.59V966.551a1.4,1.4,0,1,0-2.8,0v20.882H783.48v-16.4a1.4,1.4,0,1,0-2.8,0v16.4h-3.933v-11.61a1.4,1.4,0,1,0-2.8,0v11.61H770.4V972.1a1.4,1.4,0,1,0-2.8,0v15.332h-4.067v-8.06a1.4,1.4,0,1,0-2.8,0v8.06h-3.252v-7.468a1.4,1.4,0,1,0-2.8,0v7.468h-3.75v-5.762a1.4,1.4,0,1,0-2.8,0v5.762h-4.375a0.974,0.974,0,0,1-.951-0.994V944.755a0.974,0.974,0,0,1,.951-1h50.5a0.975,0.975,0,0,1,.951,1v41.684h0Zm-4.616-35.783c0-.02-0.006-0.039-0.008-0.059s-0.007-.055-0.012-0.082-0.011-.046-0.016-0.069-0.011-.047-0.018-0.07-0.014-.045-0.022-0.067-0.015-.046-0.024-0.069-0.017-.04-0.026-0.059-0.021-.048-0.033-0.071-0.02-.036-0.031-0.054-0.025-.046-0.039-0.069-0.027-.038-0.04-0.056-0.027-.04-0.042-0.059-0.052-.062-0.079-0.091l-0.013-.016a0.179,0.179,0,0,1-.014-0.013c-0.029-.029-0.058-0.057-0.089-0.083s-0.035-.028-0.052-0.042-0.038-.03-0.058-0.044-0.041-.026-0.061-0.039l-0.056-.035-0.063-.031c-0.02-.01-0.041-0.021-0.062-0.03l-0.06-.023-0.07-.026-0.058-.015c-0.025-.007-0.049-0.014-0.075-0.019s-0.043-.007-0.066-0.011-0.046-.008-0.069-0.01-0.075,0-.113-0.006l-0.025,0H783.14a1.466,1.466,0,0,0,0,2.93h2.668L774.18,964.428l-3.053-3.193a1.358,1.358,0,0,0-1.981,0L759.04,971.806l-3.017-3.155a1.358,1.358,0,0,0-1.981,0L748.931,974a1.513,1.513,0,0,0,0,2.072,1.358,1.358,0,0,0,1.981,0l4.12-4.31,3.017,3.155a1.358,1.358,0,0,0,1.981,0l10.106-10.57,3.053,3.193a1.358,1.358,0,0,0,1.981,0l12.619-13.2v2.791a1.4,1.4,0,1,0,2.8,0V950.8A1.427,1.427,0,0,0,790.583,950.656Zm-40.661-1.32a1.466,1.466,0,1,1-1.4,1.465A1.433,1.433,0,0,1,749.922,949.336Zm0,5.972a1.466,1.466,0,1,1-1.4,1.465A1.434,1.434,0,0,1,749.922,955.308Zm0,5.972a1.466,1.466,0,1,1-1.4,1.465A1.434,1.434,0,0,1,749.922,961.28Z" transform="translate(-740 -935)"/>
</svg>
