<svg xmlns="http://www.w3.org/2000/svg" width="20" height="20" viewBox="0 0 20 20">
  <metadata><?xpacket begin="﻿" id="W5M0MpCehiHzreSzNTczkc9d"?>
<x:xmpmeta xmlns:x="adobe:ns:meta/" x:xmptk="Adobe XMP Core 5.6-c138 79.159824, 2016/09/14-01:09:01        ">
   <rdf:RDF xmlns:rdf="http://www.w3.org/1999/02/22-rdf-syntax-ns#">
      <rdf:Description rdf:about=""/>
   </rdf:RDF>
</x:xmpmeta>
                                                                                                    
                                                                                                    
                                                                                                    
                                                                                                    
                                                                                                    
                                                                                                    
                                                                                                    
                                                                                                    
                                                                                                    
                                                                                                    
                                                                                                    
                                                                                                    
                                                                                                    
                                                                                                    
                                                                                                    
                                                                                                    
                                                                                                    
                                                                                                    
                                                                                                    
                                                                                                    
                           
<?xpacket end="w"?></metadata>
<defs>
    <style>
      .cls-1 {
        fill: #fff;
        fill-rule: evenodd;
      }
    </style>
  </defs>
  <path id="Forma_1" data-name="Forma 1" class="cls-1" d="M869.184,4215.69a2.479,2.479,0,0,0-1.81-.75H852.5a2.569,2.569,0,0,0-2.566,2.56v14.87a2.586,2.586,0,0,0,2.566,2.57h14.872a2.587,2.587,0,0,0,2.565-2.57V4217.5A2.47,2.47,0,0,0,869.184,4215.69Zm-12.066,6.45a4.105,4.105,0,0,1,5.678,0,3.808,3.808,0,0,1,0,5.51,4.105,4.105,0,0,1-5.678,0A3.811,3.811,0,0,1,857.118,4222.14Zm10.555,9.7a0.789,0.789,0,0,1-.234.57,0.778,0.778,0,0,1-.561.22h-13.92a0.771,0.771,0,0,1-.567-0.22,0.8,0.8,0,0,1-.228-0.57v-8.44H854a5.666,5.666,0,0,0-.26,1.71,5.725,5.725,0,0,0,1.823,4.26,6.075,6.075,0,0,0,4.389,1.77,6.242,6.242,0,0,0,3.125-.81,6.066,6.066,0,0,0,2.266-2.2,5.739,5.739,0,0,0,.834-3.02,5.635,5.635,0,0,0-.261-1.71h1.758v8.44h0Zm0-11.63a0.888,0.888,0,0,1-.9.9h-2.265a0.89,0.89,0,0,1-.9-0.9v-2.15a0.878,0.878,0,0,1,.261-0.63,0.851,0.851,0,0,1,.638-0.27h2.265a0.854,0.854,0,0,1,.639.27,0.877,0.877,0,0,1,.26.63v2.15Z" transform="translate(-849.938 -4214.94)"/>
</svg>
