<svg xmlns="http://www.w3.org/2000/svg" width="21" height="11" viewBox="0 0 21 11"><path fill="#ffdc36" d="M17.5 6.36c.66.57 1.36 1.11 1.95 1.74.27.28.51.57.7.89.27.46.03.97-.44 1H16.8a2.4 2.4 0 0 1-1.86-.67c-.4-.36-.77-.75-1.16-1.12-.16-.15-.33-.3-.53-.41-.4-.23-.74-.16-.97.21-.23.37-.28.78-.3 1.2-.03.6-.24.76-.93.79a8.36 8.36 0 0 1-4.17-.79 8.95 8.95 0 0 1-2.8-2.32 30.33 30.33 0 0 1-3.7-5.82C.15.6.32.36.9.35c.95-.02 1.9-.02 2.85 0 .4 0 .65.2.8.52a15.2 15.2 0 0 0 1.93 3.17 3 3 0 0 0 .73.71c.34.2.6.13.75-.2.1-.21.15-.44.17-.66.08-.78.09-1.56-.05-2.33-.08-.48-.39-.8-.93-.89-.28-.05-.24-.14-.1-.28.23-.24.45-.39.9-.39h3.28c.52.09.64.3.7.76l.01 3.23c0 .18.1.71.47.82.29.09.48-.12.65-.28a9.91 9.91 0 0 0 1.86-2.52c.22-.4.41-.81.6-1.22.14-.31.35-.46.74-.45h3.17c.1 0 .2 0 .28.02.54.08.68.28.52.74-.26.72-.77 1.32-1.26 1.93-.53.65-1.1 1.27-1.62 1.92-.48.59-.44.89.15 1.41z"/></svg>